<?xml version="1.0" encoding="UTF-8" standalone="no"?>
<!-- Generator: Adobe Illustrator 16.0.4, SVG Export Plug-In . SVG Version: 6.00 Build 0)  -->

<svg
   version="1.1"
   id="Ebene_1"
   x="0px"
   y="0px"
   width="1074.4515"
   height="810.4455"
   viewBox="0 0 1074.4515 810.4455"
   enable-background="new 0 0 80.833 60.667"
   xml:space="preserve"
   xmlns="http://www.w3.org/2000/svg"
   xmlns:svg="http://www.w3.org/2000/svg"><defs
   id="defs21" />
<g
   id="g21"
   transform="matrix(13.5,0,0,13.5,-9.288,-6.534)">
	<g
   id="g14">
		<path
   d="m 74.702,28.263 c -2.891,0 -5.24,2.35 -5.24,5.238 0,2.891 2.35,5.242 5.24,5.242 2.889,0 5.238,-2.352 5.238,-5.242 0,-2.888 -2.35,-5.238 -5.238,-5.238 z"
   id="path1"
   style="fill:#ff610c;fill-opacity:1" />
		<path
   d="m 61.036,28.263 c -2.891,0 -5.238,2.35 -5.238,5.238 0,2.891 2.348,5.242 5.238,5.242 2.889,0 5.238,-2.352 5.238,-5.242 0,-2.888 -2.35,-5.238 -5.238,-5.238 z"
   id="path2"
   style="fill:#ff610c;fill-opacity:1" />
		<path
   d="m 19.814,28.263 c -2.889,0 -5.238,2.35 -5.238,5.238 0,2.891 2.35,5.242 5.238,5.242 2.89,0 5.237,-2.352 5.237,-5.242 0.001,-2.888 -2.347,-5.238 -5.237,-5.238 z"
   id="path3"
   style="fill:#ff610c;fill-opacity:1" />
		<path
   d="m 6.151,28.263 c -2.891,0 -5.241,2.35 -5.241,5.238 0,2.891 2.351,5.242 5.241,5.242 2.887,0 5.234,-2.352 5.234,-5.242 10e-4,-2.888 -2.347,-5.238 -5.234,-5.238 z"
   id="path4"
   style="fill:#ff610c;fill-opacity:1" />
		<path
   d="m 74.702,24.852 c 2.889,0 5.238,-2.35 5.238,-5.238 0,-2.89 -2.35,-5.241 -5.238,-5.241 -2.891,0 -5.24,2.351 -5.24,5.241 -0.001,2.888 2.349,5.238 5.24,5.238 z"
   id="path5"
   style="fill:#ff610c;fill-opacity:1" />
		<path
   d="m 61.036,14.373 c -2.891,0 -5.238,2.351 -5.238,5.241 0,2.888 2.348,5.238 5.238,5.238 2.889,0 5.238,-2.35 5.238,-5.238 0,-2.89 -2.35,-5.241 -5.238,-5.241 z"
   id="path6"
   style="fill:#ff610c;fill-opacity:1" />
		<path
   d="m 47.372,14.373 c -2.891,0 -5.242,2.351 -5.242,5.241 0,2.888 2.352,5.238 5.242,5.238 2.887,0 5.234,-2.35 5.234,-5.238 0,-2.89 -2.348,-5.241 -5.234,-5.241 z"
   id="path7"
   style="fill:#ff610c;fill-opacity:1" />
		<path
   d="m 33.48,14.373 c -2.889,0 -5.239,2.351 -5.239,5.241 0,2.888 2.351,5.238 5.239,5.238 2.89,0 5.239,-2.35 5.239,-5.238 10e-4,-2.89 -2.349,-5.241 -5.239,-5.241 z"
   id="path8"
   style="fill:#ff610c;fill-opacity:1" />
		<path
   d="m 19.814,14.373 c -2.889,0 -5.238,2.351 -5.238,5.241 0,2.888 2.35,5.238 5.238,5.238 2.89,0 5.237,-2.35 5.237,-5.238 0.001,-2.89 -2.347,-5.241 -5.237,-5.241 z"
   id="path9"
   style="fill:#ff610c;fill-opacity:1" />
		<path
   d="m 61.036,0.484 c -2.891,0 -5.238,2.35 -5.238,5.238 0,2.89 2.348,5.24 5.238,5.24 2.889,0 5.238,-2.351 5.238,-5.24 0,-2.888 -2.35,-5.238 -5.238,-5.238 z"
   id="path10"
   style="fill:#ff610c;fill-opacity:1" />
		<path
   d="m 47.372,0.484 c -2.891,0 -5.242,2.35 -5.242,5.238 0,2.89 2.352,5.24 5.242,5.24 2.887,0 5.234,-2.351 5.234,-5.24 0,-2.888 -2.348,-5.238 -5.234,-5.238 z"
   id="path11"
   style="fill:#ff610c;fill-opacity:1" />
		<path
   d="m 33.48,0.484 c -2.889,0 -5.239,2.35 -5.239,5.238 0,2.89 2.351,5.24 5.239,5.24 2.89,0 5.239,-2.351 5.239,-5.24 C 38.72,2.834 36.37,0.484 33.48,0.484 Z"
   id="path12"
   style="fill:#ff610c;fill-opacity:1" />
		<path
   d="m 19.814,0.484 c -2.889,0 -5.238,2.35 -5.238,5.238 0,2.89 2.35,5.24 5.238,5.24 2.89,0 5.237,-2.351 5.237,-5.24 0.001,-2.888 -2.347,-5.238 -5.237,-5.238 z"
   id="path13"
   style="fill:#ff610c;fill-opacity:1" />
		<path
   d="m 6.151,14.373 c -2.891,0 -5.241,2.351 -5.241,5.241 0,2.888 2.351,5.238 5.241,5.238 2.887,0 5.234,-2.35 5.234,-5.238 10e-4,-2.89 -2.347,-5.241 -5.234,-5.241 z"
   id="path14"
   style="fill:#ff610c;fill-opacity:1" />
	</g>
	<g
   id="g20">
		<path
   d="m 18.72,44.909 h -2.596 c -0.164,0 -0.299,0.133 -0.299,0.297 v 14.762 c 0,0.164 0.135,0.298 0.299,0.298 h 2.596 c 0.16,0 0.295,-0.136 0.295,-0.298 V 45.206 c 0,-0.161 -0.135,-0.297 -0.295,-0.297 z"
   id="path15"
   style="fill:#ff610c;fill-opacity:1" />
		<path
   d="m 10.853,52.233 c 1.162,-0.772 1.729,-1.83 1.729,-3.232 V 48.96 c 0,-1.062 -0.354,-1.932 -1.078,-2.657 -0.91,-0.912 -2.318,-1.394 -4.07,-1.394 H 0.987 c -0.164,0 -0.299,0.133 -0.299,0.297 v 14.762 c 0,0.164 0.135,0.298 0.299,0.298 h 6.656 c 3.605,0 5.76,-1.625 5.76,-4.347 v -0.043 c 0,-1.736 -0.81,-2.894 -2.55,-3.643 z M 7.665,57.372 H 3.833 v -3.455 h 3.643 c 1.25,0 2.74,0.293 2.74,1.686 v 0.043 c 0,1.501 -1.598,1.726 -2.551,1.726 z M 3.833,51.13 v -3.328 h 3.262 c 1.459,0 2.297,0.576 2.297,1.58 v 0.041 c 0,1.485 -1.557,1.707 -2.486,1.707 H 3.833 Z"
   id="path16"
   style="fill:#ff610c;fill-opacity:1" />
		<path
   d="M 33.456,44.909 H 21.479 c -0.162,0 -0.295,0.133 -0.295,0.297 v 2.404 c 0,0.163 0.133,0.295 0.295,0.295 h 4.383 v 12.062 c 0,0.164 0.135,0.298 0.299,0.298 h 2.613 c 0.164,0 0.299,-0.134 0.299,-0.298 V 47.905 h 4.383 c 0.164,0 0.297,-0.132 0.297,-0.295 v -2.404 c 0,-0.167 -0.131,-0.297 -0.297,-0.297 z"
   id="path17"
   style="fill:#ff610c;fill-opacity:1" />
		<path
   d="m 57.772,44.909 h -2.723 c -0.129,0 -0.244,0.084 -0.281,0.204 L 51.522,55.19 48.182,45.074 c -0.039,-0.122 -0.154,-0.206 -0.283,-0.206 h -2.195 c -0.129,0 -0.242,0.081 -0.279,0.201 L 42.083,55.193 38.839,45.112 C 38.798,44.99 38.685,44.909 38.558,44.909 h -2.803 c -0.098,0 -0.182,0.042 -0.25,0.129 -0.053,0.076 -0.064,0.179 -0.031,0.265 l 5.145,14.872 c 0.045,0.119 0.154,0.195 0.279,0.195 h 2.236 c 0.125,0 0.238,-0.079 0.281,-0.199 l 3.346,-9.788 3.344,9.787 c 0.041,0.118 0.156,0.2 0.283,0.2 h 2.236 c 0.125,0 0.24,-0.081 0.275,-0.191 l 5.15,-14.88 c 0.031,-0.095 0.016,-0.194 -0.045,-0.274 -0.056,-0.073 -0.142,-0.116 -0.232,-0.116 z"
   id="path18"
   style="fill:#ff610c;fill-opacity:1" />
		<path
   d="m 63.17,44.909 h -2.594 c -0.162,0 -0.295,0.133 -0.295,0.297 v 14.762 c 0,0.164 0.133,0.298 0.295,0.298 h 2.594 c 0.162,0 0.297,-0.134 0.297,-0.298 V 45.206 c 0,-0.164 -0.134,-0.297 -0.297,-0.297 z"
   id="path19"
   style="fill:#ff610c;fill-opacity:1" />
		<path
   d="m 79.981,51.427 h -6.285 c -0.162,0 -0.295,0.132 -0.295,0.295 v 2.258 c 0,0.164 0.133,0.297 0.295,0.297 h 3.479 v 2.312 c -0.889,0.619 -2.08,0.974 -3.268,0.974 -2.779,0 -4.721,-2.046 -4.721,-4.975 v -0.044 c 0,-2.709 2.016,-4.914 4.49,-4.914 1.805,0 2.846,0.579 3.943,1.516 0.051,0.041 0.102,0.064 0.23,0.066 0.059,-0.007 0.139,-0.039 0.184,-0.101 l 1.646,-1.966 c 0.051,-0.059 0.076,-0.139 0.07,-0.223 -0.01,-0.076 -0.047,-0.145 -0.104,-0.191 -1.738,-1.475 -3.439,-2.075 -5.867,-2.075 -4.434,0 -7.908,3.483 -7.908,7.932 v 0.04 c 0,4.646 3.27,7.889 7.953,7.889 2.963,0 5.088,-1.287 6.35,-2.369 0.064,-0.055 0.104,-0.141 0.104,-0.224 v -6.202 c 0.001,-0.163 -0.132,-0.295 -0.296,-0.295 z"
   id="path20"
   style="fill:#ff610c;fill-opacity:1" />
	</g>
</g>
</svg>
