<?xml version="1.0" encoding="UTF-8" standalone="no"?>
<svg
   width="1493.4297"
   height="252.6358"
   viewBox="0 0 1493.4297 252.6358"
   fill="none"
   version="1.1"
   id="svg8"
   xmlns="http://www.w3.org/2000/svg"
   xmlns:svg="http://www.w3.org/2000/svg">
  <defs
     id="defs8" />
  <g
     id="g8"
     transform="matrix(1.5,0,0,1.5,-0.7698675,-0.9136965)">
    <path
       d="m 910.668,0.609131 c 24.273,0 44.586,8.103269 60.938,24.309769 16.351,16.2066 24.527,36.1558 24.527,59.8479 0,23.4742 -8.176,43.3872 -24.527,59.7392 -16.28,16.352 -36.156,24.527 -59.63,24.527 -23.765,0 -43.823,-8.139 -60.175,-24.418 -16.352,-16.28 -24.528,-35.974 -24.528,-59.0851 0,-15.4071 3.706,-29.6878 11.119,-42.8419 7.486,-13.1542 17.66,-23.4377 30.524,-30.8506 12.863,-7.48551 26.781,-11.228269 41.752,-11.228269 z m 0.763,15.697769 c -11.846,0 -23.075,3.0887 -33.685,9.2661 -10.611,6.1774 -18.896,14.4987 -24.855,24.9639 -5.959,10.4652 -8.939,22.1295 -8.939,34.993 0,19.0411 6.577,35.1381 19.731,48.2921 13.227,13.082 29.143,19.623 47.748,19.623 12.427,0 23.91,-3.016 34.448,-9.048 10.61,-6.032 18.859,-14.281 24.746,-24.746 5.959,-10.465 8.939,-22.0934 8.939,-34.8842 0,-12.7181 -2.98,-24.2008 -8.939,-34.448 C 964.738,39.999 956.417,31.7504 945.661,25.573 934.905,19.3956 923.495,16.3069 911.431,16.3069 Z"
       fill="#FFFFFF"
       id="path1"
       style="fill:#33444e;fill-opacity:1" />
    <path
       d="M 782.495,4.64258 H 798.52 V 165 h -16.025 z"
       fill="#FFFFFF"
       id="path2"
       style="fill:#33444e;fill-opacity:1" />
    <path
       d="M 619.766,165 V 4.64258 h 33.248 c 23.983,0 41.389,1.92589 52.217,5.77762 15.553,5.4507 27.69,14.8984 36.411,28.3433 8.793,13.4449 13.19,29.4697 13.19,48.0745 0,16.061 -3.488,30.197 -10.465,42.406 -6.904,12.209 -15.916,21.221 -27.035,27.035 -11.047,5.814 -26.563,8.721 -46.549,8.721 z m 15.37,-15.153 h 18.532 c 22.166,0 37.537,-1.381 46.113,-4.142 12.064,-3.925 21.548,-10.974 28.452,-21.149 6.904,-10.247 10.356,-22.747 10.356,-37.4999 0,-15.4798 -3.743,-28.7067 -11.228,-39.6806 -7.486,-10.9739 -17.915,-18.4958 -31.287,-22.5656 -10.029,-3.0524 -26.562,-4.5785 -49.6,-4.5785 h -11.338 z"
       fill="#FFFFFF"
       id="path3"
       style="fill:#33444e;fill-opacity:1" />
    <path
       d="m 475.132,4.64258 h 16.025 V 101.446 c 0,11.482 0.218,18.641 0.654,21.475 0.799,6.323 2.653,11.628 5.56,15.916 2.907,4.215 7.376,7.776 13.408,10.683 6.032,2.835 12.101,4.252 18.205,4.252 5.306,0 10.393,-1.127 15.262,-3.38 4.869,-2.253 8.939,-5.378 12.209,-9.375 3.271,-3.997 5.669,-8.83 7.195,-14.498 1.09,-4.07 1.635,-12.428 1.635,-25.073 V 4.64258 H 581.31 V 101.446 c 0,14.317 -1.417,25.908 -4.251,34.775 -2.762,8.793 -8.358,16.461 -16.788,23.001 -8.358,6.541 -18.496,9.811 -30.415,9.811 -12.936,0 -24.019,-3.088 -33.249,-9.266 -9.229,-6.177 -15.407,-14.353 -18.532,-24.527 -1.962,-6.25 -2.943,-17.515 -2.943,-33.794 z"
       fill="#FFFFFF"
       id="path4"
       style="fill:#33444e;fill-opacity:1" />
    <path
       d="M 364.728,20.2314 V 4.64258 h 87.974 V 20.2314 H 416.945 V 165 H 400.594 V 20.2314 Z"
       fill="#FFFFFF"
       id="path5"
       style="fill:#33444e;fill-opacity:1" />
    <path
       d="m 253.998,135.131 13.626,-8.176 c 9.594,17.66 20.677,26.49 33.249,26.49 5.378,0 10.429,-1.236 15.153,-3.707 4.724,-2.543 8.321,-5.923 10.792,-10.138 2.471,-4.215 3.707,-8.685 3.707,-13.408 0,-5.378 -1.817,-10.647 -5.451,-15.807 -5.015,-7.122 -14.172,-15.6981 -27.471,-25.7272 -13.372,-10.1018 -21.694,-17.4057 -24.964,-21.9115 -5.669,-7.5582 -8.503,-15.7342 -8.503,-24.5278 0,-6.9768 1.672,-13.3359 5.015,-19.0772 3.343,-5.7414 8.03,-10.24722 14.062,-13.51759 6.105,-3.34305 12.718,-5.014579 19.841,-5.014579 7.558,0 14.607,1.889549 21.148,5.668649 6.613,3.70643 13.59,10.57422 20.93,20.60342 l -13.081,9.9201 c -6.032,-7.9943 -11.192,-13.2632 -15.48,-15.8068 -4.215,-2.5437 -8.83,-3.8155 -13.844,-3.8155 -6.469,0 -11.774,1.9623 -15.916,5.8867 -4.07,3.9245 -6.105,8.7574 -6.105,14.4987 0,3.4884 0.727,6.8678 2.18,10.1381 1.454,3.2704 4.106,6.8315 7.958,10.6833 2.108,2.0349 9.012,7.3765 20.713,16.0248 13.88,10.2472 23.401,19.3679 28.561,27.3624 5.16,7.994 7.74,16.025 7.74,24.092 0,11.628 -4.433,21.729 -13.3,30.305 -8.794,8.576 -19.513,12.863 -32.159,12.863 -9.738,0 -18.568,-2.579 -26.49,-7.739 -7.921,-5.233 -15.225,-13.954 -21.911,-26.163 z"
       fill="#FFFFFF"
       id="path6"
       style="fill:#33444e;fill-opacity:1" />
    <path
       d="m 107.755,4.64258 h 16.134 V 149.52 h 61.592 V 165 h -77.726 z"
       fill="#FFFFFF"
       id="path7"
       style="fill:#33444e;fill-opacity:1" />
    <path
       d="M 0.513245,4.64258 H 80.8555 V 20.4494 H 16.4291 V 70.5952 H 80.8555 V 86.402 H 16.4291 V 165 H 0.513245 Z"
       fill="#FFFFFF"
       id="path8"
       style="fill:#33444e;fill-opacity:1" />
  </g>
</svg>
