<svg xmlns="http://www.w3.org/2000/svg" viewBox="-102 -1638 9230 2089" fill="#000000">
  <g transform="scale(1,-1)">
    <path d="M156 1469H355V175H1099V0H156Z" transform="translate(0,0)"/>
    <path d="M869 553Q869 703 821 797Q745 945 559 945Q394 945 319.0 819.0Q244 693 244 515Q244 344 319.0 230.0Q394 116 557 116Q736 116 802.5 251.5Q869 387 869 553ZM1057 558Q1057 299 931.0 130.0Q805 -39 540 -39Q319 -39 189.0 110.5Q59 260 59 512Q59 782 196.0 942.0Q333 1102 564 1102Q771 1102 914.0 964.0Q1057 826 1057 558ZM558 1097Z" transform="translate(1179.96,0)"/>
    <path d="M730 1028Q781 993 834 926V1061H1000V87Q1000 -117 940 -235Q828 -453 517 -453Q344 -453 226.0 -375.5Q108 -298 94 -133H277Q290 -205 329 -244Q390 -304 521 -304Q728 -304 792 -158Q830 -72 827 149Q773 67 697.0 27.0Q621 -13 496 -13Q322 -13 191.5 110.5Q61 234 61 519Q61 788 192.5 939.0Q324 1090 510 1090Q636 1090 730 1028ZM543 931Q353 931 283 753Q246 658 246 504Q246 323 319.5 228.5Q393 134 517 134Q711 134 790 309Q834 408 834 540Q834 739 752.0 835.0Q670 931 543 931ZM531 1097Z" transform="translate(2359.92,0)"/>
    <path d="M132 1066H315V0H132ZM132 1469H315V1265H132Z" transform="translate(3539.88,0)"/>
    <path d="M976 711H801Q785 810 728.0 875.5Q671 941 545 941Q373 941 299 773Q251 664 251 504Q251 343 319.0 233.0Q387 123 533 123Q645 123 710.5 191.5Q776 260 801 379H976Q946 166 826.0 67.5Q706 -31 519 -31Q309 -31 184.0 122.5Q59 276 59 506Q59 788 196.0 945.0Q333 1102 545 1102Q726 1102 839.5 1014.0Q953 926 976 711ZM517 1097Z" transform="translate(4035.84,0)"/>
    <path d="M175 1469H836Q1032 1469 1152.0 1358.5Q1272 1248 1272 1048Q1272 876 1165.0 748.5Q1058 621 836 621H374V0H175ZM951 1267Q885 1298 770 1298H374V789H770Q904 789 987.5 846.0Q1071 903 1071 1047Q1071 1209 951 1267Z" transform="translate(5715.2,0)"/>
    <path d="M137 1071H308V886Q329 940 411.0 1017.5Q493 1095 600 1095Q605 1095 617.0 1094.0Q629 1093 658 1090V900Q642 903 628.5 904.0Q615 905 599 905Q463 905 390.0 817.5Q317 730 317 616V0H137Z" transform="translate(7122.16,0)"/>
    <path d="M869 553Q869 703 821 797Q745 945 559 945Q394 945 319.0 819.0Q244 693 244 515Q244 344 319.0 230.0Q394 116 557 116Q736 116 802.5 251.5Q869 387 869 553ZM1057 558Q1057 299 931.0 130.0Q805 -39 540 -39Q319 -39 189.0 110.5Q59 260 59 512Q59 782 196.0 942.0Q333 1102 564 1102Q771 1102 914.0 964.0Q1057 826 1057 558ZM558 1097Z" transform="translate(7845.12,0)"/>
  </g>
</svg>