<svg xmlns="http://www.w3.org/2000/svg" id="_레이어_2" viewBox="0 0 6000 1509.69"><defs><style>.cls-1{fill:#7826e7}</style></defs><g id="_레이어_1-2"><path d="M2213.72 374.29c71.25 0 130.05 23.89 176.38 71.62 46.32 47.75 69.48 108.69 69.48 182.8s-23.17 135.22-69.48 183.33c-46.33 48.1-105.13 72.16-176.38 72.16h-189.21v238.38h-71.62V374.29h260.83Zm-4.28 444.7c52.01 0 94.77-17.99 128.28-53.98 33.49-35.98 50.24-81.41 50.24-136.29s-16.75-100.12-50.24-135.76c-33.51-35.63-76.26-53.45-128.28-53.45h-184.93V819h184.93ZM2564.34 1122.57V636.18h68.41v128.28c10.69-45.6 30.47-79.99 59.33-103.16 28.86-23.15 61.47-34.74 97.81-34.74 19.94 0 34.56 1.44 43.83 4.28v63.07c-14.97-2.14-30.3-3.21-45.97-3.21-52.03 0-90.86 21.91-116.52 65.74-25.66 43.83-38.48 95.67-38.48 155.54v210.59h-68.41ZM3320.63 1061.64c-45.97 49.17-106.73 73.76-182.26 73.76s-136.13-24.59-181.73-73.76c-45.61-49.17-68.41-110.1-68.41-182.8s22.98-133.44 68.95-182.26c45.97-48.81 106.36-73.23 181.19-73.23s136.29 24.42 182.26 73.23c45.97 48.82 68.95 109.57 68.95 182.26s-22.98 133.62-68.95 182.8Zm-314.81-44.36c32.77 36.71 76.97 55.05 132.55 55.05s99.95-18.34 133.09-55.05c33.14-36.69 49.71-82.84 49.71-138.43s-16.57-101.72-49.71-138.43c-33.14-36.7-77.5-55.05-133.09-55.05s-99.78 18.36-132.55 55.05c-32.79 36.71-49.17 83.21-49.17 139.5s16.39 100.67 49.17 137.36ZM3928.33 1122.57V442.7h-227.69v-68.42h529.15v68.42h-229.83v679.87h-71.62ZM4637.6 1061.64c-45.97 49.17-106.73 73.76-182.26 73.76s-136.13-24.59-181.73-73.76c-45.61-49.17-68.41-110.1-68.41-182.8s22.98-133.44 68.95-182.26c45.97-48.81 106.36-73.23 181.19-73.23s136.29 24.42 182.26 73.23c45.97 48.82 68.95 109.57 68.95 182.26s-22.98 133.62-68.95 182.8Zm-314.81-44.36c32.77 36.71 76.97 55.05 132.55 55.05s99.95-18.34 133.09-55.05c33.14-36.69 49.71-82.84 49.71-138.43s-16.57-101.72-49.71-138.43c-33.14-36.7-77.5-55.05-133.09-55.05s-99.78 18.36-132.55 55.05c-32.79 36.71-49.17 83.21-49.17 139.5s16.39 100.67 49.17 137.36ZM5224.46 1061.64c-45.97 49.17-106.73 73.76-182.26 73.76s-136.13-24.59-181.73-73.76c-45.61-49.17-68.41-110.1-68.41-182.8s22.98-133.44 68.95-182.26c45.97-48.81 106.36-73.23 181.19-73.23s136.29 24.42 182.26 73.23c45.97 48.82 68.95 109.57 68.95 182.26s-22.98 133.62-68.95 182.8Zm-314.81-44.36c32.77 36.71 76.97 55.05 132.55 55.05s99.95-18.34 133.09-55.05c33.14-36.69 49.71-82.84 49.71-138.43s-16.57-101.72-49.71-138.43c-33.14-36.7-77.5-55.05-133.09-55.05s-99.78 18.36-132.55 55.05c-32.79 36.71-49.17 83.21-49.17 139.5s16.39 100.67 49.17 137.36ZM5421.68 1122.57V374.29h68.41v748.29h-68.41ZM5817.21 1135.4c-59.86 0-107.97-14.78-144.31-44.36-36.35-29.56-54.52-66.44-54.52-110.64h68.41c0 27.79 11.93 51.15 35.81 70.02 23.87 18.89 56.47 28.33 97.81 28.33 33.49 0 60.21-7.3 80.17-21.91 19.94-14.6 29.93-35.09 29.93-61.47 0-20.66-6.06-37.41-18.17-50.24-12.13-12.83-33.51-23.15-64.14-31l-101.55-25.66c-75.55-19.24-113.31-62.7-113.31-130.42 0-40.62 16.57-73.23 49.71-97.81 33.14-24.59 75.71-36.88 127.74-36.88 56.29 0 100.65 12.66 133.09 37.95 32.42 25.3 48.64 59.7 48.64 103.16h-67.35c-.72-27.08-11.59-48.27-32.6-63.6-21.03-15.32-49.71-22.98-86.05-22.98-30.65 0-55.95 6.78-75.9 20.31-19.96 13.55-29.93 32.79-29.93 57.72 0 38.48 27.43 64.51 82.31 78.04l102.62 27.79c76.25 19.24 114.38 62.72 114.38 130.41 0 45.61-16.4 80.89-49.17 105.83-32.79 24.94-77.33 37.41-133.62 37.41ZM1489.77 956.69c17.79-64.26 27.33-131.93 27.33-201.85 0-286.7-159.83-536.06-395.25-663.85-.87-.48-1.75-.91-2.62-1.38a736.95 736.95 0 0 0-15.52-8.12c-2.24-1.14-4.5-2.24-6.76-3.36a725.177 725.177 0 0 0-19.48-9.32c-4.21-1.94-8.44-3.82-12.69-5.68-2.19-.96-4.38-1.94-6.58-2.88-6.28-2.68-12.59-5.29-18.95-7.8-.65-.26-1.31-.5-1.97-.75-5.94-2.33-11.92-4.57-17.94-6.75-2.22-.8-4.45-1.57-6.67-2.35-4.5-1.58-9.01-3.13-13.55-4.63-2.43-.8-4.87-1.6-7.32-2.38-4.63-1.47-9.28-2.9-13.94-4.28-2.18-.65-4.36-1.32-6.55-1.95-6.78-1.95-13.59-3.83-20.44-5.6-.28-.07-.56-.13-.84-.2-6.61-1.69-13.27-3.28-19.95-4.8-2.22-.5-4.46-.97-6.69-1.46-4.84-1.05-9.69-2.07-14.57-3.03-2.49-.49-4.99-.97-7.49-1.43-4.91-.91-9.84-1.77-14.78-2.59-2.25-.37-4.49-.76-6.74-1.12-7.12-1.11-14.26-2.15-21.44-3.07-.12-.02-.25-.03-.37-.04-7.06-.89-14.16-1.67-21.29-2.36-2.3-.23-4.61-.41-6.91-.61-5.06-.45-10.12-.86-15.2-1.2-2.58-.18-5.16-.34-7.75-.49-5.11-.3-10.24-.53-15.38-.73-2.32-.09-4.64-.2-6.96-.26-7.37-.21-14.76-.35-22.18-.35H762.22c-7.42 0-14.81.14-22.18.35-2.33.07-4.64.18-6.96.26-5.14.2-10.27.43-15.38.73-2.59.15-5.17.31-7.75.49-5.08.35-10.15.76-15.2 1.2-2.31.2-4.62.39-6.92.61-7.12.7-14.22 1.47-21.29 2.36-.12.02-.25.03-.37.04-7.18.91-14.32 1.95-21.44 3.07-2.25.35-4.49.74-6.74 1.12-4.94.82-9.87 1.68-14.78 2.59-2.5.47-4.99.94-7.49 1.43-4.87.96-9.73 1.97-14.57 3.03-2.23.49-4.47.95-6.69 1.46-6.69 1.52-13.35 3.11-19.96 4.8-.27.07-.55.13-.82.2-6.86 1.76-13.67 3.65-20.44 5.6-2.19.63-4.36 1.3-6.55 1.95-4.66 1.39-9.31 2.81-13.94 4.28-2.45.78-4.88 1.57-7.32 2.38-4.54 1.5-9.05 3.05-13.55 4.63-2.22.78-4.46 1.55-6.67 2.35-6.01 2.18-12 4.42-17.94 6.75-.65.26-1.32.5-1.97.75-6.36 2.51-12.67 5.13-18.95 7.8-2.2.94-4.39 1.92-6.58 2.88-4.25 1.86-8.48 3.75-12.69 5.68a805.01 805.01 0 0 0-7.26 3.39c-4.09 1.94-8.16 3.92-12.22 5.93-2.25 1.12-4.52 2.22-6.76 3.36-5.21 2.65-10.38 5.36-15.53 8.12-.87.47-1.75.9-2.61 1.37C167.27 218.78 7.44 468.14 7.44 754.84c0 69.92 9.54 137.59 27.33 201.85-12.48 3.14-24.2 8.2-34.77 14.95 21.94 77.44 55.32 150.06 98.31 215.96a378.18 378.18 0 0 0 41.42-5.86 754.205 754.205 0 0 0 41.99 55.47c56.29 67.68 124.18 125.36 200.62 169.99 6.72 3.92 13.51 7.74 20.36 11.46.15.1.31.17.47.26 5.93 3.22 11.92 6.34 17.95 9.4.91.46 1.82.94 2.73 1.4 5.84 2.93 11.72 5.78 17.64 8.56 1.12.53 2.24 1.06 3.37 1.58 5.83 2.7 11.7 5.33 17.6 7.89 1.23.53 2.45 1.06 3.68 1.59 5.88 2.51 11.8 4.95 17.76 7.32 1.26.5 2.51.99 3.77 1.48 6.01 2.35 12.05 4.63 18.13 6.82 1.18.43 2.37.84 3.55 1.26a749.66 749.66 0 0 0 18.72 6.4c1.01.33 2.03.65 3.04.97 6.5 2.09 13.03 4.11 19.6 6.03.68.2 1.37.38 2.05.58 6.6 1.9 13.24 3.72 19.91 5.45.48.12.95.26 1.43.38 6.81 1.75 13.67 3.38 20.56 4.95.89.2 1.77.41 2.66.61a739.04 739.04 0 0 0 20.12 4.18c1.09.21 2.18.43 3.28.64 6.63 1.26 13.3 2.42 20 3.51 1.2.19 2.4.39 3.6.58 6.67 1.05 13.37 2 20.1 2.88 1.21.16 2.42.31 3.63.46 6.78.84 13.58 1.6 20.41 2.27 1.13.11 2.26.21 3.39.31 6.96.64 13.94 1.21 20.96 1.66.94.06 1.88.11 2.82.17 7.24.44 14.5.8 21.79 1.03.6.02 1.2.03 1.79.05 7.66.23 15.33.36 23.04.36h.05c7.71 0 15.39-.13 23.04-.36.6-.02 1.2-.03 1.8-.05 7.29-.24 14.55-.59 21.79-1.03.94-.06 1.88-.11 2.82-.17 7.02-.45 14-1.02 20.96-1.66 1.13-.1 2.26-.2 3.39-.31 6.83-.66 13.63-1.42 20.41-2.27 1.21-.15 2.43-.3 3.64-.46 6.73-.87 13.43-1.83 20.1-2.88 1.2-.19 2.4-.38 3.59-.58 6.7-1.08 13.36-2.25 20-3.51 1.09-.21 2.18-.43 3.28-.64a739.04 739.04 0 0 0 20.12-4.18c.89-.2 1.77-.41 2.65-.61 6.89-1.56 13.74-3.2 20.56-4.95.48-.12.96-.26 1.44-.38 6.67-1.73 13.31-3.55 19.91-5.45.68-.2 1.37-.38 2.05-.58 6.57-1.92 13.1-3.94 19.6-6.03 1.01-.33 2.03-.64 3.04-.97a735.98 735.98 0 0 0 18.72-6.4c1.18-.42 2.37-.84 3.55-1.26 6.08-2.2 12.12-4.48 18.13-6.82 1.26-.49 2.52-.98 3.77-1.48 5.96-2.37 11.88-4.8 17.76-7.32 1.23-.53 2.46-1.06 3.68-1.59 5.9-2.56 11.78-5.18 17.6-7.89 1.13-.52 2.24-1.06 3.37-1.58 5.92-2.78 11.81-5.63 17.64-8.56.91-.46 1.82-.93 2.73-1.4 6.03-3.06 12.02-6.18 17.95-9.4.16-.08.31-.16.47-.25 6.85-3.73 13.64-7.55 20.36-11.47 76.44-44.63 144.34-102.31 200.62-169.99a758.479 758.479 0 0 0 41.99-55.47 378.18 378.18 0 0 0 41.42 5.86c42.99-65.9 76.36-138.52 98.31-215.96-10.57-6.74-22.29-11.81-34.77-14.95Zm-263.53 280.53a672.237 672.237 0 0 1-84.03 68.71 663.826 663.826 0 0 1-30.82 20.06c-.42.25-.84.5-1.25.76-2.99 1.83-6 3.63-9.03 5.41-.85.5-1.71.99-2.56 1.48-2.6 1.51-5.21 3.02-7.83 4.5-1.07.6-2.14 1.19-3.22 1.79a642.31 642.31 0 0 1-7.29 4.01c-1.2.65-2.41 1.29-3.62 1.93-2.33 1.24-4.67 2.48-7.02 3.7-1.28.66-2.56 1.31-3.84 1.97-2.3 1.17-4.61 2.34-6.92 3.48-1.33.66-2.65 1.3-3.99 1.95-2.29 1.11-4.58 2.22-6.89 3.31-1.36.65-2.73 1.28-4.1 1.92-2.29 1.06-4.59 2.12-6.9 3.15-1.39.63-2.79 1.25-4.18 1.87-2.3 1.02-4.61 2.02-6.92 3.01-1.41.61-2.82 1.21-4.24 1.81-2.34.98-4.69 1.95-7.04 2.91-1.4.57-2.79 1.14-4.19 1.7-2.41.96-4.83 1.9-7.26 2.84-1.35.52-2.7 1.05-4.06 1.57-2.53.96-5.06 1.88-7.6 2.81-1.27.46-2.54.94-3.82 1.39-2.72.97-5.46 1.92-8.2 2.86-1.1.38-2.2.77-3.31 1.14-3.23 1.09-6.47 2.14-9.72 3.18-.62.2-1.24.41-1.87.61-7.84 2.48-15.74 4.82-23.71 7.02-.9.25-1.8.48-2.7.72-3.04.83-6.08 1.64-9.14 2.43-1.31.34-2.63.65-3.94.98-2.66.66-5.32 1.33-7.99 1.96-1.49.35-3 .69-4.5 1.03-2.5.57-5.01 1.15-7.52 1.69-1.61.35-3.22.68-4.84 1.02-2.42.51-4.83 1.01-7.26 1.49-1.68.33-3.36.65-5.04.97-2.38.45-4.76.9-7.14 1.32-1.72.31-3.45.6-5.18.9-2.36.4-4.72.8-7.09 1.17-1.76.28-3.51.55-5.28.82-2.35.36-4.71.7-7.07 1.03-1.78.25-3.56.49-5.35.73-2.37.31-4.74.61-7.11.9a559.482 559.482 0 0 1-12.52 1.39c-1.79.18-3.58.37-5.37.54-2.43.23-4.86.43-7.29.64-1.76.15-3.53.3-5.3.43-2.49.19-4.98.35-7.47.51-1.73.11-3.45.23-5.18.33-2.61.15-5.22.26-7.84.38-1.62.07-3.24.16-4.86.22-2.89.11-5.78.18-8.68.25-1.36.03-2.72.09-4.09.11a682.24 682.24 0 0 1-25.62 0c-1.37-.03-2.72-.08-4.09-.11-2.9-.07-5.79-.14-8.68-.25-1.62-.06-3.24-.15-4.86-.22-2.61-.12-5.23-.23-7.83-.38-1.73-.1-3.45-.22-5.18-.33-2.49-.16-4.99-.32-7.47-.51-1.77-.13-3.53-.29-5.3-.43-2.43-.2-4.87-.41-7.29-.64-1.79-.17-3.58-.35-5.36-.54-2.39-.24-4.78-.49-7.16-.76-1.79-.2-3.58-.42-5.36-.63-2.37-.29-4.74-.58-7.11-.9-1.78-.24-3.57-.48-5.35-.73-2.36-.33-4.71-.67-7.07-1.03-1.76-.27-3.52-.54-5.27-.82-2.37-.38-4.73-.77-7.09-1.17-1.73-.29-3.46-.59-5.18-.9-2.39-.43-4.77-.87-7.14-1.32a894.2 894.2 0 0 1-5.04-.97c-2.43-.48-4.84-.98-7.26-1.49-1.61-.34-3.23-.67-4.84-1.02-2.51-.55-5.02-1.12-7.52-1.69-1.5-.34-3-.68-4.49-1.03-2.67-.63-5.33-1.29-7.99-1.96-1.31-.33-2.63-.64-3.94-.98-3.06-.78-6.1-1.6-9.14-2.43-.9-.24-1.8-.47-2.7-.72a673.72 673.72 0 0 1-23.71-7.02c-.63-.2-1.24-.41-1.87-.61-3.25-1.04-6.49-2.09-9.72-3.18-1.11-.37-2.21-.76-3.31-1.14-2.74-.94-5.48-1.88-8.2-2.86-1.28-.46-2.55-.93-3.82-1.39-2.54-.93-5.08-1.85-7.6-2.81-1.36-.51-2.71-1.04-4.06-1.57-2.42-.94-4.85-1.88-7.26-2.84-1.4-.56-2.8-1.13-4.19-1.7-2.35-.96-4.7-1.92-7.04-2.91-1.41-.6-2.83-1.2-4.24-1.81a602.635 602.635 0 0 1-11.1-4.88c-2.31-1.04-4.6-2.09-6.9-3.15-1.37-.64-2.74-1.28-4.1-1.92-2.3-1.09-4.6-2.19-6.89-3.31l-3.99-1.95a744.75 744.75 0 0 1-6.92-3.48c-1.28-.65-2.57-1.3-3.84-1.97-2.35-1.22-4.69-2.45-7.02-3.7-1.21-.64-2.41-1.28-3.62-1.93a642.31 642.31 0 0 1-7.29-4.01c-1.07-.6-2.15-1.19-3.22-1.79-2.62-1.48-5.23-2.99-7.83-4.5-.85-.5-1.71-.98-2.56-1.48-3.02-1.78-6.03-3.59-9.03-5.41-.42-.25-.84-.5-1.25-.76a669.2 669.2 0 0 1-30.82-20.06 672.237 672.237 0 0 1-84.03-68.71 672.131 672.131 0 0 1-73.66-83.68c72.86-34.8 130.08-91.89 178.05-156.34v.03l.45-.63c5.09-6.86 10.08-13.8 14.97-20.8.39-.56.78-1.11 1.16-1.66 4.89-7.03 9.67-14.12 14.37-21.26.34-.51.68-1.03 1.01-1.54a1181.117 1181.117 0 0 0 14.67-22.93c4.68-7.49 9.28-15.01 13.79-22.54.05-.09.11-.18.16-.27 18.6-31.02 35.89-62.16 52.44-92.01C603.34 655.58 663.64 559.6 761.59 559.6h1.34c97.95 0 158.25 95.98 245.88 253.99 16.55 29.86 33.85 61 52.45 92.04.05.08.09.15.14.23a1480.66 1480.66 0 0 0 14.5 23.67c4.57 7.31 9.23 14.58 13.97 21.81.34.51.67 1.03 1.01 1.54 4.7 7.14 9.49 14.23 14.38 21.26.39.56.78 1.11 1.16 1.66 4.89 7 9.87 13.94 14.97 20.8l.45.63v-.03c47.97 64.45 105.19 121.54 178.05 156.34a672.947 672.947 0 0 1-73.66 83.68Zm179-295.95c-67.81-30.11-120.23-116.46-189.91-242.15-28.09-50.66-58.28-105.08-93.48-156.33v-.04c-.68-1-1.39-1.98-2.07-2.97-1.04-1.5-2.09-3-3.14-4.5-1.17-1.67-2.33-3.33-3.51-4.99-1.95-2.75-3.92-5.49-5.91-8.21-1.1-1.5-2.21-3-3.31-4.49-1.22-1.66-2.45-3.31-3.69-4.96-1.14-1.52-2.29-3.05-3.45-4.56a828.752 828.752 0 0 0-8.58-11.05c-1.68-2.13-3.37-4.25-5.08-6.35-1.11-1.37-2.24-2.74-3.36-4.1-1.43-1.74-2.87-3.46-4.31-5.19-1.09-1.29-2.17-2.59-3.26-3.87-2.31-2.71-4.63-5.39-6.98-8.06-.98-1.11-1.98-2.21-2.97-3.31a600.298 600.298 0 0 0-8.3-9.08c-1.81-1.94-3.64-3.87-5.48-5.79-.9-.94-1.79-1.88-2.69-2.81-2.49-2.56-5.02-5.09-7.56-7.6-1.07-1.06-2.16-2.11-3.24-3.16-1.81-1.76-3.64-3.5-5.47-5.23-1.06-1-2.12-2.01-3.19-3a517.03 517.03 0 0 0-8.15-7.39c-.86-.76-1.74-1.51-2.61-2.26-2.1-1.83-4.2-3.64-6.33-5.43-1.12-.94-2.25-1.88-3.38-2.81a381.6 381.6 0 0 0-6.66-5.38c-.84-.66-1.66-1.34-2.5-2-2.93-2.29-5.9-4.53-8.89-6.75-1.06-.79-2.14-1.56-3.22-2.34-2.2-1.6-4.41-3.17-6.64-4.72-1.09-.76-2.18-1.52-3.27-2.27-3.11-2.12-6.25-4.21-9.42-6.25-.74-.48-1.5-.93-2.24-1.4-2.6-1.64-5.22-3.25-7.86-4.84-1.16-.69-2.32-1.38-3.48-2.06-2.59-1.51-5.2-3-7.84-4.45-.86-.48-1.71-.97-2.57-1.43-3.37-1.83-6.77-3.6-10.21-5.33-1.08-.54-2.17-1.07-3.25-1.6-2.61-1.28-5.24-2.53-7.89-3.75-1.15-.53-2.29-1.06-3.44-1.58-3.57-1.6-7.17-3.17-10.82-4.66-.6-.25-1.21-.47-1.81-.71-3.17-1.28-6.36-2.51-9.58-3.7-1.22-.45-2.45-.89-3.68-1.33-2.98-1.07-5.98-2.1-9.01-3.09-.93-.31-1.86-.63-2.8-.93-3.84-1.23-7.73-2.39-11.66-3.49-1.08-.31-2.18-.59-3.27-.89-3.06-.83-6.15-1.63-9.26-2.38a342.01 342.01 0 0 0-16.06-3.55c-.38-.07-.76-.13-1.13-.21-3.86-.74-7.76-1.42-11.7-2.04-1.29-.21-2.59-.4-3.89-.59-3.41-.51-6.85-.97-10.31-1.39-1.03-.12-2.04-.26-3.07-.38-4.38-.49-8.8-.91-13.27-1.26-1.08-.08-2.18-.15-3.26-.22a419.9 419.9 0 0 0-10.82-.61c-1.32-.06-2.64-.12-3.97-.16-4.64-.16-9.31-.26-14.04-.26H761.6c-4.73 0-9.4.11-14.04.26-1.33.04-2.65.1-3.97.16-3.64.16-7.24.36-10.82.61-1.09.08-2.18.14-3.27.22-4.47.35-8.89.77-13.27 1.26-1.03.12-2.05.26-3.07.38-3.47.42-6.9.88-10.31 1.39-1.3.19-2.6.39-3.89.59-3.93.63-7.84 1.3-11.7 2.04-.37.07-.76.13-1.13.21-4.17.82-8.27 1.72-12.36 2.66-1.24.29-2.47.59-3.7.89-3.11.76-6.2 1.55-9.26 2.38-1.09.3-2.19.58-3.27.89-3.93 1.11-7.82 2.27-11.66 3.49-.94.3-1.87.62-2.8.93-3.03.99-6.03 2.02-9.01 3.09-1.23.44-2.46.88-3.68 1.33a380.21 380.21 0 0 0-9.59 3.7c-.6.24-1.21.47-1.81.71-3.65 1.5-7.25 3.06-10.82 4.66-1.15.52-2.3 1.05-3.44 1.58-2.65 1.22-5.28 2.47-7.89 3.75-1.08.53-2.18 1.06-3.25 1.6-3.44 1.73-6.84 3.5-10.21 5.33-.86.47-1.71.96-2.57 1.43-2.63 1.46-5.25 2.94-7.84 4.45a394.13 394.13 0 0 0-11.34 6.9c-.75.47-1.5.93-2.24 1.4-3.18 2.04-6.32 4.13-9.43 6.25-1.09.75-2.17 1.51-3.26 2.26a444.12 444.12 0 0 0-6.65 4.73c-1.07.78-2.15 1.55-3.21 2.34-2.99 2.21-5.96 4.46-8.89 6.75-.84.66-1.67 1.33-2.5 2a457.318 457.318 0 0 0-10.04 8.19c-2.13 1.79-4.23 3.6-6.33 5.43-.87.76-1.74 1.5-2.61 2.26-2.75 2.43-5.46 4.9-8.15 7.39-1.07.99-2.13 2-3.19 3-1.84 1.73-3.66 3.48-5.47 5.23-1.08 1.05-2.16 2.1-3.24 3.16-2.54 2.51-5.07 5.04-7.56 7.6-.91.93-1.8 1.88-2.69 2.81-1.84 1.92-3.67 3.84-5.48 5.79-1.13 1.21-2.24 2.42-3.36 3.63-1.66 1.81-3.3 3.63-4.94 5.45-.99 1.1-1.98 2.2-2.97 3.31-2.35 2.66-4.67 5.35-6.98 8.06-1.1 1.28-2.18 2.58-3.26 3.87-1.44 1.72-2.88 3.45-4.31 5.19-1.12 1.36-2.24 2.73-3.36 4.1-1.71 2.11-3.4 4.23-5.08 6.35-1.47 1.85-2.92 3.72-4.37 5.58-1.41 1.82-2.82 3.64-4.21 5.47-1.16 1.52-2.3 3.04-3.45 4.56-1.24 1.65-2.46 3.3-3.69 4.96-1.11 1.5-2.22 2.99-3.31 4.49a946.68 946.68 0 0 0-5.91 8.21c-1.18 1.66-2.35 3.33-3.51 4.99-1.05 1.5-2.1 3-3.14 4.5-.69.99-1.39 1.98-2.07 2.97v.04c-35.2 51.25-65.38 105.67-93.48 156.33-69.69 125.69-122.1 212.04-189.91 242.15-17.13-59.18-26.34-121.72-26.34-186.43 0-242.32 128.77-454.55 321.61-572.02l1.89-1.14c3.76-2.27 7.54-4.51 11.35-6.71.7-.41 1.4-.82 2.11-1.22 8.72-5 17.56-9.8 26.51-14.41.8-.41 1.61-.82 2.41-1.23 4.24-2.16 8.49-4.28 12.78-6.35.21-.1.42-.21.63-.31 4.63-2.23 9.3-4.41 13.99-6.53l1.8-.81c4.09-1.84 8.2-3.64 12.33-5.39l2.25-.96c9.33-3.93 18.76-7.65 28.3-11.16l2.64-.96c4.38-1.59 8.77-3.14 13.19-4.64.38-.13.76-.27 1.15-.4 4.87-1.65 9.77-3.24 14.7-4.77l2.06-.63c4.23-1.3 8.47-2.57 12.73-3.79.92-.26 1.84-.53 2.77-.79 9.75-2.75 19.59-5.28 29.51-7.6 1.08-.25 2.15-.5 3.23-.74 4.31-.98 8.64-1.93 12.99-2.83.68-.14 1.36-.29 2.04-.43 5-1.02 10.01-1.98 15.05-2.88.9-.16 1.81-.31 2.71-.47 4.18-.73 8.37-1.43 12.58-2.08 1.18-.18 2.36-.37 3.54-.55 10.03-1.51 20.14-2.8 30.31-3.85 1.31-.14 2.61-.26 3.92-.39 4.17-.41 8.35-.78 12.54-1.11 1.01-.08 2.02-.17 3.03-.25 5.07-.38 10.15-.7 15.25-.97 1.11-.06 2.22-.1 3.32-.15 4.12-.19 8.24-.35 12.38-.47l4.24-.12c5.14-.12 10.29-.2 15.46-.2s10.32.08 15.46.2c1.42.03 2.83.07 4.24.12 4.14.12 8.26.28 12.38.47 1.11.05 2.22.09 3.32.15 5.1.27 10.18.59 15.25.97 1.01.08 2.02.17 3.02.25 4.19.33 8.37.7 12.54 1.11l3.92.39c10.17 1.06 20.28 2.34 30.31 3.85 1.18.18 2.36.37 3.55.55 4.21.66 8.4 1.35 12.58 2.08.91.16 1.81.31 2.72.47 5.03.91 10.05 1.87 15.05 2.88.68.14 1.36.29 2.04.43 4.35.9 8.68 1.84 12.99 2.83 1.08.25 2.16.49 3.23.74 9.92 2.31 19.76 4.85 29.51 7.6.92.26 1.84.53 2.77.79 4.26 1.22 8.51 2.48 12.74 3.79.68.21 1.37.42 2.06.63 4.92 1.54 9.83 3.13 14.7 4.77.38.13.76.27 1.15.4 4.42 1.5 8.81 3.05 13.19 4.64l2.64.96c9.54 3.51 18.97 7.23 28.3 11.16l2.25.96c4.13 1.76 8.24 3.56 12.33 5.39.6.27 1.2.53 1.8.81 4.69 2.13 9.36 4.3 13.99 6.53.21.1.42.21.63.31 4.29 2.07 8.55 4.19 12.78 6.35.8.41 1.61.82 2.41 1.23 8.96 4.61 17.8 9.41 26.51 14.41.71.4 1.41.81 2.11 1.22 3.81 2.2 7.59 4.44 11.35 6.71l1.89 1.14c192.84 117.47 321.61 329.7 321.61 572.02 0 64.7-9.21 127.24-26.34 186.43Z" class="cls-1"/></g></svg>