<svg xmlns="http://www.w3.org/2000/svg" viewBox="-50 -880 4498 1213" fill="#000000">
  <g transform="scale(1,-1)">
    <path d="M275 417H312Q370 417 401.0 441.0Q432 465 432 510Q432 555 401.0 579.0Q370 603 312 603H275ZM706 0H462L275 290V0H79V754H384Q447 754 494.0 735.5Q541 717 571.5 685.0Q602 653 617.5 611.0Q633 569 633 521Q633 435 591.5 381.5Q550 328 469 309Z" transform="translate(0,0)"/>
    <path d="M508 588H275V462H495V296H275V166H508V0H79V754H508Z" transform="translate(769.0,0)"/>
    <path d="M489 280 401 531 313 280ZM541 131H261L216 0H7L294 754H508L795 0H586Z" transform="translate(1399.0,0)"/>
    <path d="M275 408H340Q448 408 448 502Q448 596 340 596H275ZM275 0H79V754H391Q518 754 585.5 688.0Q653 622 653 502Q653 382 585.5 316.0Q518 250 391 250H275Z" transform="translate(2261.0,0)"/>
    <path d="M508 588H275V462H495V296H275V166H508V0H79V754H508Z" transform="translate(2999.0,0)"/>
    <path d="M275 417H312Q370 417 401.0 441.0Q432 465 432 510Q432 555 401.0 579.0Q370 603 312 603H275ZM706 0H462L275 290V0H79V754H384Q447 754 494.0 735.5Q541 717 571.5 685.0Q602 653 617.5 611.0Q633 569 633 521Q633 435 591.5 381.5Q550 328 469 309Z" transform="translate(3629.0,0)"/>
  </g>
</svg>