<svg xmlns="http://www.w3.org/2000/svg" viewBox="-102 -1638 10866 2089" fill="#000000">
  <g transform="scale(1,-1)">
    <path d="M286 474Q293 349 345 271Q444 125 694 125Q806 125 898 157Q1076 219 1076 379Q1076 499 1001 550Q925 600 763 637L564 682Q369 726 288 779Q148 871 148 1054Q148 1252 285.0 1379.0Q422 1506 673 1506Q904 1506 1065.5 1394.5Q1227 1283 1227 1038H1040Q1025 1156 976 1219Q885 1334 667 1334Q491 1334 414.0 1260.0Q337 1186 337 1088Q337 980 427 930Q486 898 694 850L900 803Q1049 769 1130 710Q1270 607 1270 411Q1270 167 1092.5 62.0Q915 -43 680 -43Q406 -43 251 97Q96 236 99 474ZM688 1509Z" transform="translate(0,0)"/>
    <path d="M168 1370H350V1071H521V924H350V225Q350 169 388 150Q409 139 458 139Q471 139 486.0 139.5Q501 140 521 142V0Q490 -9 456.5 -13.0Q423 -17 384 -17Q258 -17 213.0 47.5Q168 112 168 215V924H23V1071H168Z" transform="translate(1406.96,0)"/>
    <path d="M312 1071V360Q312 278 338 226Q386 130 517 130Q705 130 773 298Q810 388 810 545V1071H990V0H820L822 158Q787 97 735 55Q632 -29 485 -29Q256 -29 173 124Q128 206 128 343V1071ZM559 1097Z" transform="translate(2016.92,0)"/>
    <path d="M553 119Q678 119 758.5 226.5Q839 334 839 535Q839 738 756.0 835.5Q673 933 551 933Q415 933 330.5 829.0Q246 725 246 523Q246 351 319.0 235.0Q392 119 553 119ZM723 1038Q771 1008 832 933V1474H1005V0H843V149Q780 50 694.0 6.0Q608 -38 497 -38Q318 -38 187.0 112.5Q56 263 56 513Q56 747 175.5 918.5Q295 1090 517 1090Q640 1090 723 1038Z" transform="translate(3196.88,0)"/>
    <path d="M132 1066H315V0H132ZM132 1469H315V1265H132Z" transform="translate(4376.84,0)"/>
    <path d="M869 553Q869 703 821 797Q745 945 559 945Q394 945 319.0 819.0Q244 693 244 515Q244 344 319.0 230.0Q394 116 557 116Q736 116 802.5 251.5Q869 387 869 553ZM1057 558Q1057 299 931.0 130.0Q805 -39 540 -39Q319 -39 189.0 110.5Q59 260 59 512Q59 782 196.0 942.0Q333 1102 564 1102Q771 1102 914.0 964.0Q1057 826 1057 558ZM558 1097Z" transform="translate(4872.8,0)"/>
    <path d="M1366 1259Q1512 1064 1512 760Q1512 431 1345 213Q1149 -43 786 -43Q447 -43 253 181Q80 397 80 727Q80 1025 228 1237Q418 1509 790 1509Q1179 1509 1366 1259ZM1308 757Q1308 1016 1172.5 1174.0Q1037 1332 802 1332Q574 1332 430.0 1175.5Q286 1019 286 714Q286 470 409.5 302.5Q533 135 810 135Q1073 135 1190.5 323.5Q1308 512 1308 757ZM796 1509Z" transform="translate(6667.16,0)"/>
    <path d="M132 1071H303V919Q379 1013 464.0 1054.0Q549 1095 653 1095Q881 1095 961 936Q1005 849 1005 687V0H822V675Q822 773 793 833Q745 933 619 933Q555 933 514 920Q440 898 384 832Q339 779 325.5 722.5Q312 666 312 561V0H132ZM555 1097Z" transform="translate(8301.119999999999,0)"/>
    <path d="M962 903Q1016 822 1034 714Q1050 640 1050 478H265Q270 315 342.0 216.5Q414 118 565 118Q706 118 790 211Q838 265 858 336H1035Q1028 277 988.5 204.5Q949 132 900 86Q818 6 697 -22Q632 -38 550 -38Q350 -38 211.0 107.5Q72 253 72 515Q72 773 212.0 934.0Q352 1095 578 1095Q692 1095 799.0 1041.5Q906 988 962 903ZM865 621Q854 738 814 808Q740 938 567 938Q443 938 359.0 848.5Q275 759 270 621ZM561 1097Z" transform="translate(9481.079999999998,0)"/>
  </g>
</svg>